<svg xmlns="http://www.w3.org/2000/svg" style="enable-background:new 0 0 99.012 99.012" xml:space="preserve" viewBox="0 0 99.012 99.012">
  	<path d="M25.08 15.648a2.465 2.465 0 0 0-3.573.085c-14.829 16.325-6.762 51.623-5.916 55.115L.723 85.717a2.469 2.469 0 0 0 0 3.492l8.958 8.957a2.47 2.47 0 0 0 3.491 0l14.865-14.864c7.237 1.859 16.289 2.968 24.28 2.968 9.599 0 22.739-1.543 30.836-8.886a2.469 2.469 0 0 0 .086-3.574L25.08 15.648zM46.557 30.345a2.461 2.461 0 0 0 1.746.723c.632 0 1.264-.241 1.746-.724l18.428-18.428A6.863 6.863 0 0 0 70.5 7.031a6.866 6.866 0 0 0-2.023-4.886A6.86 6.86 0 0 0 63.592.123a6.872 6.872 0 0 0-4.887 2.022L40.277 20.574a2.47 2.47 0 0 0 0 3.492l6.28 6.279zM96.99 30.661a6.862 6.862 0 0 0-4.885-2.024 6.86 6.86 0 0 0-4.886 2.023L68.79 49.089a2.466 2.466 0 0 0 0 3.492l6.28 6.278a2.46 2.46 0 0 0 1.746.724 2.46 2.46 0 0 0 1.746-.724l18.43-18.429c2.694-2.695 2.694-7.077-.002-9.769z"/>
</svg>
